<mxfile host="app.diagrams.net" modified="2024-01-26T06:27:46.204Z" agent="Mozilla/5.0 (Windows NT 10.0; Win64; x64) AppleWebKit/537.36 (KHTML, like Gecko) Chrome/120.0.0.0 Safari/537.36 Edg/120.0.0.0" etag="qTMfJkGKRjUV3RSaradY" version="23.0.0" type="github">
  <diagram name="第 1 页" id="0ob1iZy1dAKtV9MFENm6">
    <mxGraphModel dx="946" dy="613" grid="1" gridSize="10" guides="1" tooltips="1" connect="1" arrows="1" fold="1" page="1" pageScale="1" pageWidth="827" pageHeight="1169" math="0" shadow="0">
      <root>
        <mxCell id="0" />
        <mxCell id="1" parent="0" />
        <mxCell id="FPIvqE7i1kk4Mldst6vu-1" value="" style="shape=image;verticalLabelPosition=bottom;labelBackgroundColor=default;verticalAlign=top;aspect=fixed;imageAspect=0;image=data:image/png,iVBORw0KGgoAAAANSUhEUgAABKkAAAHOCAYAAABTilr7AAAgAElEQVR4Aezd36sc573ne/1XMwjmwrdz6zvDgC8O62IsBo4IhwxsLDL4EIy3g2yCTPAkHrBnT0RIRLaxMMiMgmOzBcLBCGT2XkJIBMWYMCvaWkuSLctnfw9V3dVdXV3V/XSvZ3VX13oZlru76qnnx/t5d62qj6pqnXnhpfPh52QY/Lv/N8IPBhzgAAc4wAEOcIADHOAABzjAAQ5wYLkDZwRUJxNQFVwJuFxAjDDiAAc4wAEOcIADHOAABzjAAQ5woHDgzL//b4+FKSte8VQw+w//+X8tvQLNl8yXjAMc4AAHOMABDnCAAxzgAAc4wAEOpDlwBqg0UE1ORVC17Cq05jY+r8caN9w4wAEOcIADHOAABzjAAQ5wgAPDd0BIteJVVPUvhZBq+F+Q+nx7b745wAEOcIADHOAABzjAAQ5wgAMn54CQSkjlds9jOGDndHI7J2yx5QAHOMABDnCAAxzgAAc4cLocEFIdI6BwJdXp+rLYOZpvDnCAAxzgAAc4wAEOcIADHODAyTkgpBJSuZLqGA7YOZ3czglbbDnAAQ5wgAMc4AAHOMABDpwuB4RUxwgoXEl1ur4sdo7mmwMc4AAHOMABDnCAAxzgAAc4cHIOCKmEVK6kOoYDdk4nt3PCFlsOcIADHOAABzjAAQ5wgAOnywEh1TECCldSna4vi52j+eYABzjAAQ5wgAMc4AAHOMABDpycAwtDqv/43yP+719Pf17579OOLFp3WiZMSDX14bTMuXGacw5wgAMc4AAHOMABDnCAAxzgwMk40BlS/afPIw6fR9x7EHFr/FN8vvV5xKJ1qRP1L9H93//55+lgF5WravifLVdDFdtd//2onuuPp+9T+5dSTkg1nacUXsrgxQEOcIADHOAABzjAAQ5wgAMc4ECXA50h1f/8OuLmtQa4axHPvo5YtK6toaL8zH9f1+r9p4h4HPFqS9BU1PUvC9aV6yNiLqT6p4h60PXvfh/xf9rKdbTZNoa2ZUKq2jwek2UbX8vw5QAHOMABDnCAAxzgAAc4wAEOnB4HFoZU1ZVIEyGKsGccUnWtm5RtCS2Kq5uagdKr/9wIlBrbrRNSpVx9VYRm//JPx5toIdXx+C1yxTpsOcABDnCAAxzgAAc4wAEOcIADp8uBrYVUxS14Xf/Vg6yUwKlevgi9iv+ay2aurGoEYetKL6Q6XV+WdT2xHU84wAEOcIADHOAABzjAAQ5wgAPLHVgYUuW63a+aiPqVVF3PiaqXKbZb6Uqq4kqvx6NtugKwyfL6LYdrhlZCquWCVXPvFSsOcIADHOAABzjAAQ5wgAMc4AAHFjnQGVIVD0d/9jzi8NvpT/G5enB617pFjdUDqHpIVbyvrnyqlynqWiWkKp59VdyGWK+vqGPZLYWL+rxonZDKl2uRH9bxgwMc4AAHOMABDnCAAxzgAAc4kO5AZ0hVQPxPH0Z8/FXE9fHP//xwWvGidV0TUA+gkkOqyaVP3W+qgKtqt6h76X+upIqKl9ep11hgwQEOcIADHOAABzjAAQ5wgAMc2I4DnSHV//VPEc+eRNx6MP35y5PRw8YXrVs0kWuFVGv8dT9XUm1HpkVzb5054QAHOMABDnCAAxzgAAc4wAEOcGCRA50hVXHr3Oe1K6fKSj6MOBz/db+udYsaK0Kq8r/xc6PKvxA4fo7Uq+PnQtWDrKKuVW73qx6aXjWz7PW4D1N3u58v1yLfreMHBzjAAQ5wgAMc4AAHOMABDnAg3YGFIVUZItUfKl4ESuOQqmtdG/wi8Cr/a7nFbnJrXscVU6uEVM22y9Dq64gi+PqXryOOG0o16xdSpYvWZOczdhzgAAc4wAEOcIADHOAABzjAAQ7UHdhISFVvcPK+CLyK5KoKrv5plGM1g6TJ1Vej1a3/bz6TqrqiqqqrujqruXzSl3oQt8J7IZUv03Edsj2HOMABDnCAAxzgAAc4wAEOcIADIwc6Q6r3vo649cdZUf7jHyOefR2xaF0K2PLqqY4rp4qrrqpwqahrlSupqiu26tuXdcT0rwcWn6uwKjr6kDKGooyQataPVG7K4cYBDnCAAxzgAAc4wAEOcIADHOBA04HOkOo/fhjxf55HPPs24nD88+x5xPUPIxatazYw5M9CKl+oIfttbPzmAAc4wAEOcIADHOAABzjAgU060BlSbbITu9qWkMqXdVfd1W/ucoADHOAABzjAAQ5wgAMc4EDfHBBSrfAMqubkCal8oZtO+MwJDnCAAxzgAAc4wAEOcIADHODAeg4IqYRU4cuz3pcHN9w4wAEOcIADHOAABzjAAQ5wgAP5HBBSCamEVMdwwM4o384ISyw5wAEOcIADHOAABzjAAQ6cbgeEVMcIKNzud7q/PHae5p8DHOAABzjAAQ5wgAMc4AAHOJDPASGVkMqVVMdwwM4o384ISyw5wAEOcIADHOAABzjAAQ6cbgeEVMcIKFxJdbq/PHae5p8DHOAABzjAAQ5wgAMc4AAHOJDPASGVkMqVVMdwwM4o384ISyw5wAEOcIADHOAABzjAAQ6cbgeEVMcIKFxJdbq/PHae5p8DHOAABzjAAQ5wgAMc4AAHOJDPASGVkMqVVMdwwM4o384ISyw5wAEOcIADHOAABzjAAQ6cbgeEVMcIKFxJdbq/PHae5p8DHOAABzjAAQ5wgAMc4AAHOJDPASHVmiHVv/9vj0NIlU9EX2osOcABDnCAAxzgAAc4wAEOcIADp9uBM0XYQoLVJCiY/Yf//L+EVGsGfHxbzTe88OIABzjAAQ5wgAMc4AAHOMCB0+DAmWVXA1l/fmkY1cXoNAhkjHaUHOAABzjAAQ5wgAMc4AAHOMABDuRwQEj10vohVFc4VS3PMUHq8EXnAAc4wAEOcIADHOAABzjAAQ5w4DQ4IKQSUrnd022LHOAABzjAAQ5wgAMc4AAHOMABDmzdASGVkGrrEp6GNNgY/asHBzjAAQ5wgAMc4AAHOMABDnBgsQNCKiGVkEpazgEOcIADHOAABzjAAQ5wgAMc4MDWHRBSCam2LqEkeXGSjA8+HOAABzjAAQ5wgAMc4AAHOHAaHBBSCamEVNJyDnCAAxzgAAc4wAEOcIADHOAAB7bugJBKSLV1CU9DGmyM/tWDAxzgAAc4wAEOcIADHOAABziw2AEhlZBKSCUt5wAHOMABDnCAAxzgAAc4wAEOcGDrDgiphFRbl1CSvDhJxgcfDnCAAxzgAAc4wAEOcIADHDgNDgipTjCkevzk2/CDAQc4wAEOcIADHOAABzjAAQ5wgAMcWO6AkEpIJUgTJnKAAxzgAAc4wAEOcIADHOAABziwdQeEVEKqrUsoTV6eJmOEEQc4wAEOcIADHOAABzjAAQ4M3QEhlZBKSCUt5wAHOMABDnCAAxzgAAc4wAEOcGDrDgiphFRbl3DoSbDx+dcODnCAAxzgAAc4wAEOcIADHODAcgeEVEIqIZW0nAMc4AAHOMABDnCAAxzgAAc4wIGtOyCkElJtXUJp8vI0GSOMOMABDnCAAxzgAAc4wAEOcGDoDgiphFRCKmk5BzjAAQ5wgAMc4AAHOMABDnCAA1t3QEglpNq6hENPgo3Pv3ZwgAMc4AAHOMABDnCAAxzgAAeWOyCkElIJqaTlHOAABzjAAQ5wgAMc4AAHOMABDmzdASGVkOpEJXx09DT+enAUX//10c7+FP0vxiH1Xp56Y4QRBzjAAQ5wgAMc4AAHOMABDqzrgJBKSCV8kZZzgAMc4AAHOMABDnCAAxzgAAc4sHUHhFRCqq1LuG7CajvpPAc4wAEOcIADHOAABzjAAQ5wYDgOCKmEVEIqaTkHOMABDnCAAxzgAAc4wAEOcIADW3dASCWk2rqEUu/hpN7m0lxygAMc4AAHOMABDnCAAxzgwLoOCKmEVEIqaTkHOMABDnCAAxzgAAc4wAEOcIADW3dASCWk2rqE6yastpPOc4ADHOAABzjAAQ5wgAMc4AAHhuOAkEpIJaSSlnOAAxzgAAc4wAEOcIADHOAABziwdQeEVEKqrUso9R5O6m0uzSUHOMABDnCAAxzgAAc4wAEOrOuAkEpIJaSSlnOAAxzgAAc4wAEOcIADHOAABziwdQeEVEKqrUu4bsJqO+k8BzjAAQ5wgAMc4AAHOMABDnBgOA4IqYRUQippOQc4wAEOcIADHOAABzjAAQ5wgANbd0BIJaTauoRS7+Gk3ubSXHKAAxzgAAc4wAEOcIADHODAug4IqYRUQippOQc4wAEOcIADHOAABzjAAQ5wgANbd0BIJaTauoTrJqy2k85zgAMc4AAHOMABDnCAAxzgAAeG44CQSkglpJKWc4ADHOAABzjAAQ5wgAMc4AAHOLB1B4RUQqqtSyj1Hk7qbS7NJQc4wAEOcIADHOAABzjAAQ6s64CQSkglpJKWc4ADHOAABzjAAQ5wgAMc4AAHOLB1B4RUQqqtS7huwmo76TwHOMABDnCAAxzgAAc4wAEOcGA4DgiphFRCKmk5BzjAAQ5wgAMc4AAHOMABDnCAA1t3QEglpNq6hFLv4aTe5tJccoADHOAABzjAAQ5wgAMc4MC6DgiphFRCKmk5BzjAAQ5wgAMc4AAHOMABDnCAA1t3QEglpNq6hOsmrLaTznOAAxzgAAc4wAEOcIADHOAAB4bjgJBKSCWkkpZzgAMc4AAHOMABDnCAAxzgAAc4sHUHhFRCqq1LKPUeTuptLs0lBzjAAQ5wgAMc4AAHOMABDqzrgJBKSCWkkpZzgAMc4AAHOMABDnCAAxzgAAc4sHUHhFRCqq1LuG7CajvpPAc4wAEOcIADHOAABzjAAQ5wYDgOCKmEVEIqaTkHOMABDnCAAxzgAAc4wAEOcIADW3dASCWk2rqEUu/hpN7m0lxygAMc4AAHOMABDnCAAxzgwLoOCKmEVEIqaTkHOMABDnCAAxzgAAc4wAEOcIADW3fgREKqGOB/L6wRZq2bHNpO6swBDnCAAxzgAAc4wAEOcIADHODAaXNASJUYqAmp7BxO287BeDnPAQ5wgAMc4AAHOMABDnCAA5t0QEglpNr65XybFF5bdrAc4AAHOMABDnCAAxzgAAc4wIF+OiCkElIJqdx3zAEOcIADHOAABzjAAQ5wgAMc4MDWHRBSCam2LqEEu58JtnkxLxzgAAc4wAEOcIADHOAABziwSQfSQ6ofvRvv/P6z+OTLe3Hj88/iym8uxys/Oh9tz2pKzH12qljbOJct2+REasuOgwMc4AAHOMABDnCAAxzgAAc4wIFddmB5SPWjD+LKncN4FhHPDg9i/869uH3nmzj4PiJ+eBr3b/5jvNL4y3c7lT4ldnZZINW2fpfF0Hc7Ng5wgAMc4AAHOMABDnCAAxzgAAc26cDikOon12P/24hn39yKX/70QuOqqQux94sbo/V3r88EVYm5z04Vawuhli07yYk8evw0/GDAAQ5wgAMc4AAHOMABDnCAAxzgwFAcWBBSvR1X/hLx7O71OH+ueVvf6/Hab67FWz85Hy8UQdb3EV//8b1JiLVT6VNiZ5cFUm3rc4dUQ5HOOOxAOcABDnCAAxzgAAc4wAEOcIADHGg60B1S/eqrOIpv4koRRNVv5/vRb+OTvzyP+P4gPro0Wvfi7+7Fs+/vxS/H5RJzn50qNsOgzmPB+5whVXPiHj9+GodHT/xgwAEOcIADHOAABzjAAQ5wgAMc4MAgHOgMqV67cRhx/3q8WAthXv7VF3G/uP3vYD8++Xh8JVW5/lrsx2F8Og6tdip9SuzsNkOqKqD64f/7t/CDAQc4wAEOcIADHOAABzjAAQ5wgANDdKA7pLp5GEdf/nZyFdVrfzgoH55ez3Tu/+93x+s/iE8fRuz/fnRlVb3MUN5vK6SqAqriqqkhCmhMdqwc4AAHOMABDnCAAxzgAAc4wAEOFA50hlQ//uNBxF8+i73xlVSv/eFB3L+/H/vFrX7xPPavXppeZXXu+uhKqp8Lqeph1nFv96sCquJVSOULa6fNAQ5wgAMc4AAHOMABDnCAAxwYsgOdIdULP/siDurPpDr3Xly5P3oW1Se/en1yhVURyrxy7ZuIJ1/FW+NAayhXT9XHUQ+fUt/nCqmKgOrx4+4rqer99B4BBBBAAAEEEEAAAQQQQAABBBDYRQLdIdVLb8b7d59HPLwVb5w7H+/fiYiDr+KdxoPUX3zrs7j//fPY//2bk+BqF0Es63NqMFUvlzOk+tdHR523+y3ru/UIIIAAAggggAACCCCAAAIIIIBA3wksCKnOxwvnLsenB0U4NQqq6gFM8f7FX9yKgx8iDm5cnt7699L5vo95rf41x57y+TghVXWrX3EV1aPDx/HwXw+FVGvNnI0QQAABBBBAAAEEEEAAAQQQQGAXCCwOqYrb9869VwZV9YeojwKa0cPSD268NxNQFeuG+F9KKNUsI6QaognGhAACCCCAAAIIIIAAAggggAACJ0FgeUj10vl47eZhxP3rs2FU9bD0S6OHpdcDmpPo6LbrrI8v9b2Qatuzpn0EEEAAAQQQQAABBBBAAAEEENgVAkkhVXVb39ygOm4DnCs3gAWpwVS9nJBqABNvCAgggAACCCCAAAIIIIAAAgggsBECSSFVEby8/JN348evz/688qP5q6iKskP8rx4+pb7PG1I98kyqIYplTAgggAACCCCAAAIIIIAAAgggUBJIDKnejY/+/DSOnsz+3P/f707+ol89uBki2/r4Ut/nDKn+9lBINUSvjAkBBBBAAAEEEEAAAQQQQAABBEYEEkOq8/HC/3M9btdDqjvX4+XiweotP0OE2zbOZcuEVEM0wZgQQAABBBBAAAEEEEAAAQQQQOAkCKSHVC9diL2fTm/3O/9fL7QGVEVwM8T/lgVSbeuFVEM0wZgQQAABBBBAAAEEEEAAAQQQQOAkCKwQUrVfNdUWzpxER7ddZ9s4ly0TUm171rSPAAIIIIAAAggggAACCCCAAAK7QkBIlThTywKptvVCqkS4iiGAAAIIIIAAAggggAACCCCAwKknIKRKVKAthFq2TEiVCFcxBBBAAAEEEEAAAQQQQAABBBA49QSEVIkKLAuk2tYLqRLhKoYAAggggAACCCCAAAIIIIAAAqeegJAqUYG2EGrZMiFVIlzFEEAAAQQQQAABBBBAAAEEEEDg1BMQUiUqsCyQalsvpEqEqxgCCCCAAAIIIIAAAggggAACCJx6AkKqRAXaQqhly4RUiXAVQwABBBBAAAEEEEAAAQQQQACBU09ASJWowLJAqm29kCoRrmIIIIAAAggggAACCCCAAAIIIHDqCQipEhVoC6GWLRNSJcJVDAEEEEAAAQQQQAABBBBAAAEETj0BIVWiAssCqbb1QqpEuIohgAACCCCAAAIIIIAAAggggMCpJyCkSlSgLYRatkxIlQhXMQQQQAABBBBAAAEEEEAAAQQQOPUEhFSJCiwLpNrWC6kS4SqGAAIIIIAAAggggAACCCCAAAKnnoCQKlGBthBq2TIhVSJcxRBAAAEEEEAAAQQQQAABBBBA4NQTEFIlKrAskGpbL6RKhKsYAggggAACCCCAAAIIIIAAAgicegJCqkQF2kKoZcuEVIlwFUMAAQQQQAABBBBAAAEEEEAAgVNPQEiVqMCyQKptvZAqEa5iCCCAAAIIIIAAAggggAACCCBw6gkIqRIVaAuhli0TUiXCVQwBBBBAAAEEEEAAAQQQQAABBE49ASFVogLLAqm29UKqRLiKIYAAAggggAACCCCAAAIIIIDAqScgpEpUoC2EWrZMSJUIVzEEEEAAAQQQQAABBBBAAAEEEDj1BIRUiQosC6Ta1gupEuEqhgACCCCAAAIIIIAAAggggAACp56AkCpRgbYQatkyIVUiXMUQQAABBBBAAAEEEEAAAQQQQODUE1g5pHr551fjl794M1586Xx0hTRDpNo11kXLhVRDNMGYEEAAAQQQQAABBBBAAAEEEEDgJAikh1TnLsX7t59O+nB093q8eq49qJoUGtCbRWFU17rcIVVXfQPCbCgIIIAAAggggAACCCCAAAIIIHBKCaSFVOfeiyt/fh7x7YP46Oevx8s/vxH730bEwa14oyWoGiLLriBq0fKuUCll+dHjp1H8HB49iUeHj+NvDx8NEasxIYAAAggggAACCCCAAAIIIIAAAiWBhJDqQrzxxWHE9w/i8k9qV0795Hrsfx/x7J+vzt36N0S2i8KornUpYVRXGSHVEC0yJgQQQAABBBBAAAEEEEAAAQQQ6CKwPKT62RdxEE/jT++/Hq9e3Y+vD5/G0eFB/Onqe/Hy+/txFE/jxq9q4dVL57va2unlXUHUouVdAVTKciHVTuui8wgggAACCCCAAAIIIIAAAgggsCKBpSHVO7eeR/z5s9j71VdxFM/j6y9vxJWb38SzeB5/+oc348qfI57duTZzNdWKfdiJ4ovCqK51KWFUVxkh1U5ooZMIIIAAAggggAACCCCAAAIIIJCJwJKQ6nLcOIzYv3ohXrt5WIZVL5d/1e/1Mpw6uPlBvHj1QcS3+/FO7a/9Zepbr6rpCqIWLe8KoFKWC6l6Nf06gwACCCCAAAIIIIAAAggggAACJ0xgSUh1PfbjMD69dD5e+If9eBaHcfvDy/HGh/fKWwDL2/wu3YqDeBCXhVTRDKxSwqiuMkKqEzZf9QgggAACCCCAAAIIIIAAAggg0CsCC0Kqt+OdLw8j4jA++XnxzKkL8cb/fhAH30fE94dx++p7o1v8fl48syri2d3r8co4qOrVCDN1phlApXzuCqBSlgupMk2cahBAAAEEEEAAAQQQQAABBBBAYCcIdIZUL/7mXjz7/kFc+emFuSuEmgHNi2/diPvfR9y/9mZZdidGvmInm2NO+ZwSRnWVEVKtOEGKI4AAAggggAACCCCAAAIIIIDAThPoDKl++c/P4+iLy0sDqiqsKR+wfve6kKp222NXAJWyXEi1098rnUcAAQQQQAABBBBAAAEEEEAAgRUJdIZUl+9GFA9Gr0KoZa/lg9WFVDO8UsKorjJCqhVNVhwBBBBAAAEEEEAAAQQQQAABBHaaQGdI9eM/HEQ8/CreOHc+XvvDg9j/4+XRM6gmVwq9Gb+8dRhff/5BvHDuctx4GPH1H951JdWEz/noCqBSlgupdvp7pfMIIIAAAggggAACCCCAAAIIILAigc6QqgiePn1YPDf9YPSw9Hge929+Flc+Hv/c/CaeFY19fxgHxfPVD26VgVZxxdUQ/1t2JVnb+pQwqquMkGqIFhkTAggggAACCCCAAAIIIIAAAgh0EegOqYorgs5dil9+/iC+/utXceXjr+Lrw6dxVPx1v8Nv4vad/fjoN1fjk9v34sYffhvnzxV/AXD009XYLi+vxrbKa1cAlbJcSLXLtug7AggggAACCCCAAAIIIIAAAgisSmBxSFW7de2Fn9+Kg3gQt+9GxN17sR+H8enPp8FUPbxZtRO7UL4+vtT3KWFUVxkh1S5YoY8IIIAAAggggAACCCCAAAIIIJCLQHpIdWkUUu2XIdWDUUh1SUi1KLDqCqBSlgupcimuHgQQQAABBBBAAAEEEEAAAQQQ2AUC6SHVucvx0c3r8UkZUn0Rl2/emDyDqhnU7MLAV+1jc4wpn1PCqK4yQqpVZ0h5BBBAAAEEEEAAAQQQQAABBBDYZQLpIdX41r+9X1yL93/x5uT5U21hzS4D6ep72ziXLesKoFKWC6m6ZsJyBBBAAAEEEEAAAQQQQAABBBAYIoGVQ6plwUyxfoj/pYy7WSYljOoqI6QaokXGhAACCCCAAAIIIIAAAggggAACXQSEVF1kGsubAVTK564AKmW5kKoxAT4igAACCCCAAAIIIIAAAggggMCgCQipEqc3JZRqlkkJo7rKCKkSJ0YxBBBAAAEEEEAAAQQQQAABBBAYBAEhVeI0NgOolM9dAVTKciFV4sQohgACCCCAAAIIIIAAAggggAACgyAgpEqcxpRQqlkmJYzqKiOkSpwYxRBAAAEEEEAAAQQQQAABBBBAYBAEhFSJ09gMoFI+dwVQKcuFVIkToxgCCCCAAAIIIIAAAggggAACCAyCgJAqcRpTQqlmmZQwqquMkCpxYhRDAAEEEEAAAQQQQAABBBBAAIFBEBBSJU5jM4BK+dwVQKUsF1IlToxiCCCAAAIIIIAAAggggAACCCAwCAJCqsRpTAmlmmVSwqiuMkKqxIlRDAEEEEAAAQQQQAABBBBAAAEEBkFASJU4jc0AKuVzVwCVslxIlTgxiiGAAAIIIIAAAggggAACCCCAwCAICKkSpzEllGqWSQmjusoIqRInRjEEEEAAAQQQQAABBBBAAAEEEBgEASFV4jQ2A6iUz10BVMpyIVXixCiGAAIIIIAAAggggAACCCCAAAKDICCkSpzGlFCqWSYljOoqI6RKnBjFEEAAAQQQQAABBBBAAAEEEEBgEASEVInT2AygUj53BVApy4VUiROjGAIIIIAAAggggAACCCCAAAIIDIKAkCpxGlNCqWaZlDCqq4yQKnFiFEMAAQQQQAABBBBAAAEEEEAAgUEQEFIlTmMzgEr53BVApSwXUiVOjGIIIIAAAggggAACCCCAAAIIIDAIAkKqxGlMCaWaZVLCqK4yQqrEiVEMAQQQQAABBBBAAAEEEEAAAQQGQUBIlTiNzQAq5XNXAJWyXEiVODGKIYAAAggggAACCCCAAAIIIIDAIAgIqRKnMSWUapZJCaO6ygipEidGMQQQQAABBBBAAAEEEEAAAQQQGAQBIVXiNDYDqJTPXQFUyvK2kKpru8QhKIYAAggggAACCCCAAAIIIIAAAgj0loCQKnFqUkKpZpmuUClleVtIldhVxRBAAAEEEEAAAQQQQAABBBBAAIGdIyCkSpyyZgCV8jkljOoqI6RKnBjFEEAAAQQQQAABBBBAAAEEEEBgEASEVInTmBJKNct0BVApy4VUiROjGAIIIIAAAggggAACCCCAAAIIDIKAkIhYC/0AACAASURBVCpxGpsBVMrnlDCqq4yQKnFiFEMAAQQQQAABBBBAAAEEEEAAgUEQOGZIdSHeuHE4AvHtN/HRpfNRhDdD/C8llGqW6QqgUpYLqYZokTEhgAACCCCAAAIIIIAAAggggEAXgdVDqh+9HW+8+0G8/FIRSF2L/VrNBzc/EFKVXEZhXUoY1VVGSFUTy1sEEEAAAQQQQAABBBBAAAEEEBg8gcSQ6kK8enU/vj58PgVy8FX88qfvxSd/rRY9j/0P343zP3m9WjCo1+ZVUimfuwKolOVCqkHpYzAIIIAAAggggAACCCCAAAIIILCEQGJI9W589Jfn8ezwIG7fvBFXPr8XRz8UNT+P+zeuxTu//yzef/9qfPLN84gf7i1pcjdXp4RSzTIpYVRXGSHVbnqi1wgggAACCCCAAAIIIIAAAgggsB6BxJBqdPvaNIS5EK/+8WDU4jdfxEc39uPGn4urrIqrqd5eryc932o69iaL7s9dAVTKciFVz4XQPQQQQAABBBBAAAEEEEAAAQQQyEpgYUi194trceXjzxo/N+JP41v8nj35Jj753RfxdXlVVcTBjcvxogenl8/lKkKtlDCqq4yQKqvnKkMAAQQQQAABBBBAAAEEEEAAgZ4TWBhSzV899Gb88vbTckjP/novPr15PV4rHhT+k9/G+79+rwyoim2G+N88i+4rqKqyXQFUynIh1RAtMiYEEEAAAQQQQAABBBBAAAEEEOgi0BJSvRvvzF09Nb6a6o+34vb4Lr/4/jBuf1z9lb/ZwKarsV1eXgVPq7ymhFFdZYRUu2yLviOAAAIIIIAAAggggAACCCCAwKoEWkKq2cBpEsqc+8f405OIo9vX463ffBH7h+Omvr0X7//d7DardmIXyk84FFeOJf50BVApy4VUu2CFPiKAAAIIIIAAAggggAACCCCAQC4CaSHVj96Ny3eK2/yex+3fXBiHNO/Fp8VVVd8/EFJ1hFYpYVRXGSFVLsXVgwACCCCAAAIIIIAAAggggAACu0BgSUj1erz28b04Gj8Y/eiLf5w8d+qVa9+U47t/7e25K4t2YeCr9jH16ql6ua4AKmW5kGrVGVIeAQQQQAABBBBAAAEEEEAAAQR2mUB3SPX31+N2dUvf4b248vPXp2HU312P/e8j4q9fxKstVxHtMpCuvtfDp9T3KWFUVxkhVddMWI4AAggggAACCCCAAAIIIIAAAkMk0BlS7f3+Xhw9OYg/tT0c/dIXcfD9YXxyqf35TEMElRpM1ct1BVApy4VUQ7TImBBAAAEEEEAAAQQQQAABBBBAoItAZ0hVD1tWfd/V2C4vX5VBUT4ljOoqI6TaZVv0HQEEEEAAAQQQQAABBBBAAAEEViUgpEokJqRKBKUYAggggAACCCCAAAIIIIAAAgggsAYBIVUiNCFVIijFEEAAAQQQQAABBBBAAAEEEEAAgTUICKkSoQmpEkEphgACCCCAAAIIIIAAAggggAACCKxBQEiVCE1IlQhKMQQQQAABBBBAAAEEEEAAAQQQQGANAkKqRGhCqkRQiiGAAAIIIIAAAggggAACCCCAAAJrEBBSJUITUiWCUgwBBBBAAAEEEEAAAQQQQAABBBBYg4CQKhGakCoRlGIIIIAAAggggAACCCCAAAIIIIDAGgSEVInQhFSJoBRDAAEEEEAAAQQQQAABBBBAAAEE1iAgpEqEJqRKBKUYAggggAACCCCAAAIIIIAAAgggsAYBIVUiNCFVIijFEEAAAQQQQAABBBBAAAEEEEAAgTUICKkSoQmpEkEphgACCCCAAAIIIIAAAggggAACCKxBQEiVCE1IlQhKMQQQQAABBBBAAAEEEEAAAQQQQGANAkKqRGhCqkRQiiGAAAIIIIAAAggggAACCCCAAAJrEBBSJUITUiWCUgwBBBBAAAEEEEAAAQQQQAABBBBYg4CQKhGakCoRlGIIIIAAAggggAACCCCAAAIIIIDAGgSEVInQhFSJoBRDAAEEEEAAAQQQQAABBBBAAAEE1iAgpEqEJqRKBKUYAggggAACCCCAAAIIIIAAAgggsAYBIVUiNCFVIijFEEAAAQQQQAABBBBAAAEEEEAAgTUICKkSofUhpHr85Nto+0kcgmIIIIAAAggggAACCCCAAAIIIIBAbwkIqRKnpg8h1XfffRdtP4lDUAwBBBBAAAEEEEAAAQQQQAABBBDoLQEhVeLUCKkSQSmGAAIIIIAAAggggAACCCCAAAIIrEFASJUITUiVCEoxBBBAAAEEEEAAAQQQQAABBBBAYA0CQqpEaEKqRFCKIYAAAggggAACCCCAAAIIIIAAAmsQEFIlQhNSJYJSDAEEEEAAAQQQQAABBBBAAAEEEFiDQGJIdSH2fnE1rnz+Vdy+cy9uf/lFXPnN5dg7dz7awps1+tH7TdrGuWxZ21/iS1129PhpFD+HR0/i0eHj+NvDR60PTS8epO4/BBBAAAEEEEAAAQQQQAABBBBAYNcJLA2pXv7VF3H/Sccwf3ga92/+Y7zy0mxY1VF6pxcvC6Ta1qcGUm3lhFQ7rYvOn2ICZ86cCT8YnIQD63ytTqIf6uR34cCq//GGNyflwKouKo8AAggg0G8CC0OqVz58EM+K/n/7TXz6m/dqV05diL2fXY1P/vy0HN2zu9fjfO2qqn4Peb3etYVQy5a1hU+py4RU682TrRDYNoGTOghXrxO8ddzmDW9OyoFVfTypfqiX41zkQF/2A6u6qDwCCLQT6AypXvzFrTiIiGd//ixeLQOo8S1/v7sce5Mrpy7Eq9e+KYOsgy8ux4vj5e1N7fbSZYFU2/rUQKqtnJBqt33R+9NLoC8HSvoxvIP2db5VPBieB32Z01V97Eu/9WN43wkuDm9Od/V7uqqLyiOAQDuBjpDqvfikSKgefhVvFAHVuffiyv3noxoe3orXJiFVcZvfhXjnVnFF1WF88rPRbX/tTe320rYQatmytvApdZmQard90fvTS2BXD6z0u/8H+et8q8xr/+d1V+doVR93dZz63f/vEBf7P0en5Xu0qovKI4BAO4H2kOrS6Cqq+9ferIVQT2P/4w/i5ZmAavwsqr/7LO5HxNGXvy0fpN7e1G4vXRZIta1PDaTaygmpdtsXvT+9BE7LgZhxbv6kYJ1vlXna/DydFuar+nhauBjn5r9zXNw8c563M1/VReURQKCdQGtItXftm4j4Jq78XXEV1fXYj4iDmx+0/iW/UTjzZlz5S0T89Yv48Uvn21va8aVtIdSyZW3hU+oyIdWOC6P7p5ZA24HbqYVh4GsTyOVRrnrWHogNB0Egh0c56hgETIM4FoEcHrXVYVl76ILLalyOJbeNEUBgQqA1pHrt5mFEPIjLxVVTr1+LG3fuxUe/mv0Lfs2A5vLd4vbA0a2Ak9oH9KY53pTPqYFUWzkh1YDkMZRTRaDtgO5UATDYLARyeZSrniyDUsnOEsjhUY46dhagjmcjkMOjHHVkG5CKdpYAj3Z26nR8Bwi0hlQ//mPxQKoHcbn2F/sWhzIX4nJxv5+QauZqs7bwKXWZkGoHvj26iEALAQctLVAsWplALo9y1bPyAGwwKAI5PMpRx6CgGsxaBHJ4lKOOtTpvo0ER4NGgptNgekagNaR64f39eBbP4/bvLsyELp1B1blrcfv7iGf/fNUzqWrP7EoNpNrKCal69k3RHQQSCThoSQSl2EICuTzKVc/Czlo5eAI5PMpRx+BBG+BSAjk8ylHH0o4qMHgCPBr8FBvgFgm0h1Qv/TZuPImIv3wWr9RCl66Q6pXyGVZP48b4lsAtjufEmu4a+6LlbeFT6jIh1YlNpYoROFECDlpOFO+pqTyXR7nqOTXgDbSVQA6PctTR2jkLTxWBHB7lqONUQTfYVgI8asViIQJZCHSEVOdj7/cP4ln5wPTL8eKCoOrFX4z+EuCz+9cngVaWnvWskkVhVNe61ECqrZyQqmcC6A4CiQQctCSCUmwhgVwe5apnYWetHDyBHB7lqGPwoA1wKYEcHuWoY2lHFRg8AR4NfooNcIsEOkOqF166EG+UD1CPOLr7WbzxXxu3/p17M974+EEcFZ3/9kFc/sn0wepbHM+JNd0VRC1a3hY+pS4TUp3YVKoYgRMl4KDlRPGemspzeZSrnlMD3kBbCeTwKEcdrZ2z8FQRyOFRjjpOFXSDbSXAo1YsFiKQhcCCkKoInS7Eq1fvxdEPo7aePTmM+3fuxf2Dp/FsvOzo8Gm58uDWP7qSqnHFWWog1VZOSJXFb5UgsHECDlo2jnyQDebyKFc9g4RsUMkEcniUo47kDis4WAI5PMpRx2ABG1gyAR4lo1IQgZUJLAmpxldH/ejdeOfjW/Gn+wdx9ORpHB18E7e/vBHv/P3rZZD1xh8PRrcGjoOqlXuxAxssumKqa11b+JS6TEi1A1LoIgItBBy0tECxaGUCuTzKVc/KA7DBoAjk8ChHHYOCajBrEcjhUY461uq8jQZFgEeDmk6D6RmBtJCqcYXQfChzIUZB1fO4/ZvXezbEPN2ZH/P09saudamBVFs5IVWeeVMLApsm4KBl08SH2V4uj3LVM0zKRpVKIIdHOepI7a9ywyWQw6McdQyXsJGlEuBRKinlEFidQKaQanxr4M/fKx+yvno3+r9FVxC1aHlb+JS6TEjVfyf0EIE2Ag5a2qhYtiqBXB7lqmfV/is/LAI5PMpRx7CoGs06BHJ4lKOOdfpum2ER4NGw5tNo+kUgY0g1vbKoX0PM05tFYVTXutRAqq2ckCrPvKkFgU0TcNCyaeLDbC+XR7nqGSZlo0olkMOjHHWk9le54RLI4VGOOoZL2MhSCfAolZRyCKxOQEiVyKwriFq0vC18Sl0mpEqcGMUQ6BkBBy09m5Ad7U4uj3LVs6MYdTsTgRwe5agj03BUs8MEcniUo44dRqjrmQjwKBNI1SDQQkBI1QKlbdGiMKprXWog1VZOSNU2C5Yh0H8CDlr6P0e70MNcHuWqZxeY6ePJEcjhUY46Tm6Eat4VAjk8ylHHrvDSz5MjwKOTY6tmBIRUiQ50BVGLlreFT6nLhFSJE6MYAj0j4KClZxOyo93J5VGuenYUo25nIpDDoxx1ZBqOanaYQA6PctSxwwh1PRMBHmUCqRoEWggIqVqgtC1aFEZ1rUsNpNrKCanaZsEyBPpPwEFL/+doF3qYy6Nc9ewCM308OQI5PMpRx8mNUM27QiCHRznq2BVe+nlyBHh0cmzVjICQKtGBriBq0fK28Cl1mZAqcWIUQ6BnBBy09GxCdrQ7uTzKVc+OYtTtTARyeJSjjkzDUc0OE8jhUY46dhihrmciwKNMIFWDQAsBIVULlLZFi8KornWpgVRbOSFV2yxYhkD/CTho6f8c7UIPc3mUq55dYKaPJ0cgh0c56ji5Eap5Vwjk8ChHHbvCSz9PjgCPTo6tmhEQUiU60BVELVreFj6lLhNSJU6MYgj0jICDlp5NyI52J5dHuerZUYy6nYlADo9y1JFpOKrZYQI5PMpRxw4j1PVMBHiUCaRqEGghIKRqgdK2aFEY1bUuNZBqKyekapsFyxDoPwEHLf2fo13oYS6PctWzC8z08eQI5PAoRx0nN0I17wqBHB7lqGNXeOnnyRHg0cmxVTMCQqpEB7qCqEXL28Kn1GVCqsSJUQyBnhFw0NKzCdnR7uTyKFc9O4pRtzMRyOFRjjoyDUc1O0wgh0c56thhhLqeiQCPMoFUDQItBIRULVDaFi0Ko7rWpQZSbeWEVG2zYBkC/SfgoKX/c7QLPczlUa56doGZPp4cgRwe5ajj5Eao5l0hkMOjHHXsCi/9PDkCPDo5tmpGQEiV6EBXELVoeVv4lLpMSJU4MYoh0DMCDlp6NiE72p1cHuWqZ0cx6nYmAjk8ylFHpuGoZocJ5PAoRx07jFDXMxHgUSaQqkGghYCQqgVK26JFYVTXutRAqq2ckKptFixDoP8EHLT0f452oYe5PMpVzy4w08eTI5DDoxx1nNwI1bwrBHJ4lKOOXeGlnydHgEcnx1bNCAipEh3oCqIWLW8Ln1KXCakSJ0YxBHpGwEFLzyZkR7uTy6Nc9ewoRt3ORCCHRznqyDScnlVzJy6ePRsX7/SsWz3tTg6PctTRUzy6tUECPNogbE2dOgJCqsQpXxRGda1LDaTayrWFVG3limX+QwCB/hBw0NKfudjlnuTyKFc9u8xS349PIIdHOeo4/kiKGq7G3tmLUWZCdy7G2TN7cbVYXLyvll/dizPV+7lGi1DpTOyVG0Vc3TsTbWObLksIoIr2ziwpV5SpGq36VG433/7ZmcTrauxVY6y2m3kdjWd2m5kCvfow5Tod96odzFHHqm0qPzwCPBrenBpRfwgIqRLnoiuIWrS8K1RKWd4WUn333XfR9pM4BMUQQGADBBy0bADyKWgil0e56jkFyA1xAYEcHuWoY0EXV1pVBEtl3jMJqeaDp2YeNG1gvmx3wFMERLXwqSNUamMzWTbpyKjdmaCqJbi6c/FsNPtTLOsOwYRUBWv/IbAqgcl39Mz6gemqbSqPwGkhIKRKnOlFYVTXupQwqquMkCpxYhRDoGcEHLT0bEJ2tDu5PMpVz+YxzgYBM+2XwcL0SpaZdcWHFYOASQZQbTuzoLu+2SBgWFerNJnm8ChHHc1+rf/5auwV81yFVFf3asFOMZfTk85Jv/euxijsqa/bi729M7Vtmz1qCamaV2iVvo6v5mpuPvd5tr7yKq6Gr20hVVFN2fdG2VH1Qqpijv2HwKoEJvuG2v5i1TqURwCBdgJCqnYuc0u7gqhFy7sCqJTlQqq5KbAAgZ0g0NuDlupkrEFx/qTrzNxtLsWJ0OwJ+aITnloDLf/K3xUgzNZ/nBP+jhPM2kHk/BylniDWxnbCb+f7uN5JVK56Tni4LdUvCKkWnnBXoVLKnI5cmT1vH7V72q9WaU5IDo9y1NHs1zqfW/d51f6hCJAa+635cGfWzZVu9yvqboRUbUFTyrhG46hdpTXeqFg+uz9dVpuQqnDTfwisSqAv+7RV+608ArtAQEiVOEuLwqiudSlhVFcZIVXixCiGQM8I9O6gpfxX+vq//FfvRyc3cyc0HSdRsyc9s/+a3z0F2zjhn+9beRLYODGc9LkjvJus39KbXB7lqmfzGFYNAmpXVpXOrxtSFSOddagtRJj73owBlcHBbOpVrSmfYzT7Pdo81XVbzOFRjjrW7X/bdsW8nt3bi7P12/HKuZ8N6ufnet7N7nmddakM6c9ejKvl7XfVvnjB63i/VTo4DtJKvUrH5wOqcpz1ff7Zvdg7O62/7Gd9fRXOtb2evdiGbevLcniUo46tg9CBrRPg0danQAcGTEBIlTi5XUHUouVdAVTKciFV4sQohkDPCPT2oKU4MZkENdMTp7kTsJlyI7jlyVztQbz1E6b58TZPnKZtFbWV2zZO4uf6MJ7T9U74Z9vrunKr6Hd5wiak6tk3aHyV3sxJ89iptrlqW1aehB8npJoiKR2cCTFG67qcnW7ZfLdbV6s0ez//PV/9ypMcdTT7tc7nav9V7oZKf6YhTtnHvb3ag8ZnA6lRe9Wy0S2Dzf3j5BbCts419q9t+8O2zWbb7S6xaM1cPyeFd8vNHB7lqGOCL/VN4drM7+CGd8U+b+Z3Y/13We1h/13tVfvC1v1fUVdLe13LJv2sGqv3pVrW9tooV/RlZkzVla7zfZkNeot6Fu3D++HsVjxqw24ZAgMkIKRKnNRFYVTXupQwqquMkCpxYhRDoGcE+nnQUp1UVbCmB4BzJ9u1k6jqZG46prNx8WLxV6i6Dh4bB6hVc+PXzZzw1/pQHqzPXhVRdGXUj/EYqgP7Rl+3/XHKfHowv06fctWzTtvH26bp7Li2+klPOXfNULQ6CepytN6rwpXpFVh138vzqtKflvqLKiq3ipO8Y16tUv6VuXq3evg+h0c56siKppzDNk/q7tX2J+PGR/uP4ns52rbuTdsYy2XVSX/RZv19fV9aX9c60Hq/Ru8726t5XVUlpKpIROtfY5yuPbl3pSvl/Hd4Vex4Jr+TZstMt+3o32S78f6p8qwsXtTVdL3uU63ONg+rZcXrXLBV30fO9jli7Gk9qCrqqH8e/06eDamq39P1umt9HNfb3KZeYhPv51msHt5vop/aQGAXCQipEmetK4hatLwrgEpZLqRKnBjFEOgZgf4dtLQcJNYOZqcnXNMwZHISVbIdbT86GCzeTw8ay4PmmYPN6QFquW58MFsWKQ9up9vOTFv9wPfYJ/zjPlyt/Wn5sv7iAH3Mon7wXmMx06ctf8jlUa56No9jNFelO+Uc1fycO0kar6tcnMz3sl4XrkxDqlHpWrvLNm9ZX3jffuI0qrd9XUtFPVuUw6McdeTAUt83NftUKVTuF6sHpdf2F6P5vVreulmVnZvzRfuUws2yvvG+qMvlanmt7eqEv2q3eVvqhE2H/3P9nGywW24256z4vOp/OepYtc1R+Wr/Mvu7stgvVM51hVTV/DcDnkk/FnlX3sa6fkjVdKf4PPVw0oMiHZv9a5blqtllxbbNMRRjb9s3TpjUmyjf98PZ7Xk0B8QCBAZHQEiVOKWLwqiudSlhVFcZIVXixCiGQM8I9O2gZeaAsHayXx0Qzh0cTk6iKrCjE/liXDMHpWVdzdBp9mC0Oqie2a6qNuG1eWA83WTRAWqzD8VW0zG0j6N58D5taVvvcnmUq57NcxjNcdn/hkAzTrd1rOMkfb7oyIvZ6quTyKJ0rQ9VaNB4nd12dDtr9d2abW+Rs7Ml+/gph0c56sjFZu7kd+4Ef7rPaM5x5cVo+diXi0Uo3hWkTvcvc+3WBzS3762vLN7X3RytK+urB1mt++VR2fX2p80+bP9zDo9y1LEqiWKupi5Nf09V8zJxY+LitMykrTt3orjystwHdvpW83DSYFHX1MNRffM+lcvnPBx9FyZVtQRRk763rJv0fXIVc/O4YXTVVPt+s751/X0/9qfb8KhOwXsEhkxASJU4u11B1KLlXQFUynIhVeLEKIZAzwjszkFL20HrPMw7F/fi7Nni6pCLM/9COjqwLq4oqB9wNg+q6wfBo/dtfKpl04PgUT+qg/eWXi14CPWoD3t7Z2u3JcwenNcP8PfKk8vZ9fPtbX5JxaT+uk4v6ttX79epZ5PbzMzP1UbLC07CJyWzhVRFjU2nx610tLGes5Oe9/ZN5U79ddXO1ret3q9aR57yxZyOTuRH+5z2E96Rh237htp+rfKxfuVmvZOTwGG0cOTH6EqsisHS18mOcdpuUU+1eNLP0snp8no3ivejtkc3l84GJu3jb27fl89tvFbtW446Vm2z+KuRRZA5mrfpfqWal0nQM3FmWiaprcl2baWnzreNfW5ZLfgs+zXpdylS7Xfr6MrRSd9r+8uRl7XvWeln/Xih1s+xu2U/jn01da3eE347x22Nq/pOuIuqR2BnCQipEqduURjVtS4ljOoqI6RKnBjFEOgZgb4dtNQPFNv61rmsPJIePaz14vgWpuJAtPzXzuJguDqInTkwLg6E6yd105Oq0TR1HHRnPeGfb2PCoOpz3ZmZ/tdXbPd927ys06Nc9azT9vG2qblTP4FZdPXA9Kx98rygxX0YnbhVm43K1todb1yegNXdKZ1pP9mqTjjn292tIKDZ/xwe5aij2a/jfp7sG2YlGF+pshd7xa1J9bkvG5w6MnGjaz8ys3x+3zTT/8LzubbqJUa+jjjW97PT5Y1h1Dceh1RVQFbffrfczOFRjjpm4KZ+mPgwdaHaZ0yCnrkyo/mZn/dmo0Wd9Xmtr29bN/W4XrL6C5TjOLP8B6Gi7cqtqr/FNtX7Sd9rIdWozo42Zhrs/lDVP1+iH85uzaN5IJYgMDgCQqrEKe0KohYt7wqgUpYLqRInRjEEekZgJw5aipOh8V+wKq44qv3hvhmaxYFnEUrNHihOD66rwsX68hkTk4Pras38AerkpG5SpLhNpr0Ps+1WGxSviw5Q5/s32bIKO+ongnN9npTe6ptcHuWqZ/MwEtypbh+pzp6qTpbz3HWyVhUqXgtXpidfozXTdgv/qqpLx4sTwLFD1fJ6bWWNtWdSFa5Pyy1ytllL/z7n8ChHHdnIVPuC8Ul9uV8q34/mqXooerWvmQ2PKkeq11LE5bf7FW3W9z3NwSxbX+6rpvvKUZ9rV6qMfS45T8Ubt1KNq+2ZaaN1q91u1ez85j7n8ChHHccb8fT3VLWfKeezmLfJ76RpmVFbxefRfq0+99VYmlc7z/RvUmd9ac3f+uKah6M+XZw+g22mnun2k74vDKmmDlZ9br42tV3vGKA+mJN93+x/8dl/CCCQh4CQKpHjojCqa11KGNVVRkiVODGKIdAzAv0+aBkfJJZHgtUB72hZ2wnK1b3RAfHMgeLk5K723Ivy6pazcXHulpfpQWx1IF5MV/G+PAkc19U8MK2mtN5ucRA8Ldfd55nbs8oD6qqf05O7qv7ydeage2bNVj/k8ihXPZuHMXVnOk/VXI7Co9KjtpP+0qt1Q6rie1G1U69junzq4TyVkbO7f7VKc2Q5PMpRR7Nf63we7X/a9gfjOW6Z4HKb6kHqpR/jwLLyr2s/Ulte1NFS9XQItXBgurDl3WS/VvdzttxojPUHVBdjaxtzsd2i/elsvX34lMOjHHWsx6KYh2LeqvmY7ucmQc/EmapM1VK1bfV5/BfwJlIVdXXM8aTO6bbVvE82r1bVPBwdA0z7WHg1CsP24mqtzknfJ+OqKptuO1rSHNO4XMc+e9Re298/HdXbdtxStbyJ1+15tInRaQOB7RIQUiXy7wqiFi3vCqBSlgupEidGMQR6RqCfBy2jA7ozMycpswe85UHmmbZ/ZZ9e0r8Ude2gdVS2aGPTJ/wdB8Fl36q+1G7hmevz0lFupEAuj3LVs5FBzzTSPLmZrqxcHY2t5aSsPOGpzfXEwfZlMydppQ/TOuttjcrVnJ7ZsOhf9T1r+x7146RqBs3+NwAAIABJREFUSnG1dzk8ylHHar1WeogEcniUo4612E7CmOr3VPVaC5wmv5Om60ZtFZ9ng8lpODQu0RWENn//Ldknzl7xN94XF89vLELZ4uHtVX3jfeC0H80+z+/Hy7JVuFt0u7HPrXMVUtVpeI/A6SIgpEqc70VhVNe6lDCqq4yQKnFiFEOgZwS2dvDbwWH0L+rTk+5psfkD3mLd5KS8dgLefaA4rW2y7YKDz0ndk1usij6Mg4Nae6Na1z3hr9VZ1b30dfbAf3ZU2/mUy6Nc9WySwtSTkbcjh6cB0+y/nk89mSg0ORFc1uuRK5Pt6sWrk7DGSWG9yKRfkwqK+tq+a8VWo37O9r1eW7/f5/AoRx39pqR3myCQw6Mcdawz1nLfNtlfTB9CPrNfKPc99autqpaK/cvod9XVixfLv/LXrG/mc7EfHP8+LpfXfzeXVc4HSOXi2najllvKNYKlabvNfeB022J/WQ19tO/c/dunt+VRZYRXBIZMQEiVOLtdQdSi5V0BVMpyIVXixCiGQM8I7M5By/SAdxnC4oBy5iC62qAMA6bhweyVWlWh6l9Ki3LdYVC+E/7mQXKtH21vJycEbSu3tyyXR7nq2R4JLfeBQA6PctTRBxb6sF0COTzKUcfqFKaBTbntOAjfuzpaPv87tvm7bPS5+Gu7M+HT5B9hum7BG99iXyVEk443+lMtXxpSFf3oOCaYu91vVHbEu/77f7p8rltVPyYPZu/v7dPb8agGyFsEBkygI6S6EK9evRcH349H/v1h3P74g3j5pfMxDWVej7f+8KC1zBB5TcddZ7D4fUoY1VVGSDVEi4zpNBBw0HIaZvnkx5jLo1z1nPyItdBnAjk8ylFHnxnp22YI5PAoRx2rj3YUMpV/qGT8DzzTYKotqKqVLxobh1pFQFX8xd3RGJpXbk7rKa5uKutvXPU07fc6IdU4XOpMltr6PO1jecXVOFQbVTGur1g2V+eof8U4p5yq3k/HWS3Zxut2PNrGSLWJwOYJtIZUr/7xIOKHw7jxmw/ix6+/G298uB8HP0Q8u/9ZvHrufLxw7r24cv95WeZPH14uy7z2m6/KMl//8b3Nj2IDLQqpNgBZEwgMgICDlgFMYg+GkMujXPX0AIkubJFADo9y1LFFBJruCYEcHuWoY2UcRVhU3HJXBlTT4GZazzjgKf8AyTiEqt+iV2w3F+RMt56+q4KfURvTW/GmJUbvaiFVFYCNA6TZUGharuuq6nr41HrF9KT++tVUs/3JdzX1bL0n+WkrHp3kgNSNQI8ItIRUv40bTyLuX3uzdtXU+Xjxp9fi9mFEPHwQ+w8j4vBevP/TCzNl9q59E/Htfo+Gl68rQqp8LNWEwJAJOGgZ8uxubmy5PMpVz+ZGrqU+EsjhUY46+shGnzZLIIdHOerY7Ki11kcCPOrjrOjTUAi0hFTXYz8O49NL87eyvfj3X8TX5cgP4pOfzQZUZYhz6VYcxIOhsJkZh5BqBocPCCDQQcBBSwcYi1cikMujXPWs1HmFB0cgh0c56hgcWANamUAOj3LUsXLHbTA4Ajwa3JQaUI8ItIRUH8SnD4srqd6euUrq5V/dGt3y9+db8Wlxq9/3B/HJr16fKfNKcSXVw1s9Gl6+rgip8rFUEwJDJuCgZcizu7mx5fIoVz2bG7mW+kggh0c56ugjG33aLIEcHuWoY7Oj1lofCfCoj7OiT0Mh0BJSnY+93z+IZ/E87n/5Wbzz/tX46Mtv4llEHHz5j/FK+fD0t+OdL4t7/4oyN+KX7/9jXCnLPI/93785FDYz4xBSzeDwAQEEOgg4aOkAY/FKBHJ5lKuelTqv8OAI5PAoRx2DA2tAKxPI4VGOOlbuuA0GR4BHg5tSA+oRgdaQqghkXvmHL2L/4GkcPXkaR3+9F5/8+lK8OPPX/S7E+V9/Ebf/Oi5z8CA++YfR1Vc9Gl+2rgipsqFUEQKDJuCgZdDTu7HB5fIoVz0bG7iGekkgh0c56uglHJ3aKIEcHuWoY6OD1lgvCfCol9OiUwMh0BlSrRPKVNsMhM3MMKqxrfL6+Mm3se7P0eOnUfwcHj2JR4eP428PH8V3333X+jPTUR8QQGCrBBy0bBX/YBrP5VGuegYD1kDWIpDDoxx1rNV5Gw2KQA6PctQxKKgGsxYBHq2FzUYIJBEQUiVhiplnb6UGVesGVMV2QqrEiVEMgZ4RcNDSswnZ0e7k8ihXPTuKUbczEcjhUY46Mg1HNTtMIIdHOerYYYS6nokAjzKBVA0CLQSEVC1Q2halBlP1ckKqNpKWITBsAg5ahj2/mxpdLo9y1bOpcWunnwRyeJSjjn7S0atNEsjhUY46NjlmbfWTAI/6OS96NQwCQqrEeayHT6nvhVSJcBVDYEAEHLQMaDK3OJRcHuWqZ4soNN0DAjk8ylFHD1D0ogtX987EmbMX404verPZTuTwKEcdmx211vpIgEd9nBV9GgoBIVXiTKYGU/VyQqpEuIohMCACDloGNJlbHEouj3LVs0UUmu4BgRwe5ajjOCjuXDwb8304Gxdbkp4yBDpzZqb82baCtQ6tUn9tszXe3omLZ4VU9blcFWJ92+r9qnUoj0DlTv0VFQQQyEPgREKqelBzmt8LqfJIqhYEdolA/WCler9L/dfXfhCo3Km/rtOz+vbV+3Xqsc0sgdN2JUvlTv11lsjyT/Vtq/fLt8pXogyRmlcf3bkYZ4swau/qTENz8zsutyioWqX+mcZ8WIlA5U79daUKImbCx6qeVetQHoHKnforKgggkIeAkOql82s9FD0lfBNS5ZFULQjsEoH6wUr1fpf6r6/9IFC5U39dp2f17av369Rz3G2qq0y6TvKr9VUfy9dGoDAXHDQ61VrHmfYrZRqbrvjx9F3JMjMv4yuMVoS29WCgNUQqB3E19s6cibqbba6VyxphVp3BKvXXt/N+NQJDcHG1ESvdVwI5XOzr2PQLgW0TEFIJqbbtoPYRGBSBPh60tJ68NwKAQUzC1b25E+H6iWc1xgmP1hPOcQDRuq6q4eRfc3mUq57jjXjEdG9vr/M5OvMn+PNBUFtwUO/XfB0R0XGlTH0775cTyOFRjjqW97S7RKsf4+KjfcJeVNdTzbu2fL+wSv1ls5Wb1W2Fc/vkUXhWcavvkub7FxGN/d/Zi1dHtwVONpyOYTTe6nbG6bgn9Jb0rWr/anUL5VzfJzVlf1PxqL+u2kh92+r9qnUoj0DlTv0VFQQQyENASCWkymOSWhBAoCRQP1ip3m8bzfzJ03wAsO0+Hq/98XjmrpoZn+Q1TqDqJ2iT87dJB6YncpNFW3hTuVN/Xacb9e2r9+vUc6xtypPnvbg6PvGdZ15kSWfnA6xG+erEuOURQmX3Wuso18xfKXOs8ZzCjSt36q+rYqhvW71ftY7jlO/2owozp1fdzblWObygA6vUPwqUpu1FNPfJ885evTh9UHqzf2XbZ85E/btVlpm5lbHaT9avGhvvI2c3jDMz+9Jm34o8bBxw1bdbwCbnqsqd+uuq9de3rd6vWofyCFTu1F9RQQCBPASEVEKqPCapBQEESgL1g5Xq/bbRtJ48NQKAbffxOO2PTtBargYoK50/CRvx2Iu94uHDZ5rbCamOMxdt25YntOXJbDfbVkdjNHfVeXDzxLzZVnsdo1Ktjiy5WiTG7Vff46ofRY2tfRnwlSwVg/prk/+yz/Vtq/fLtsm5fpEf1RV31RxPQpjqKqfG7YBt/Uqvf/Q9qNqa1FX6OA6uluyfZ/2bD7RGdTa/b+PPraF9tR9M6Fvl/9y+czKSE31TuVN/XbXB+rbV+1Xr6GP50os5sfrY02H0qXKn/jqMkRkFAtsnIKQSUm3fQj1AYEAE6gcr1fttD6/95Kk9AGi9faN5Mt/4F/vp+MaBUHVi1zgZqk4EKy7zf0J9dvvZY+2udaPlbbf1Vf1qBhQTHtW4ZhpqnthVtWz2dcKoYnnmzFodyFXPWo0XGzVOtkdzUb+CZFTzZE7qDZXbTsvOnpjXCy6ooyrWqMuVLBWYtNccHuWoI6237aVaHauKNvyYd6094Kk2L16T6x9/J9p4FMtGu6Nxe8X3v7kfrUKiavm4vpndWNmx5r6s+XnU+9F3chxSJfWtI6StwzjB923cVm0uRx2rtplSfjQX1W2Y09f5uW2vLVdI1dWPitui37ftPRvm0opH/XWYIzUqBDZPQEglpNq8dVpEYMAE6gcr1fttD7f15KntpKw4IWoeDY+vDplZPD6RmTlQHZebWXbnYlycPuRlyS0k82HT9PaWBesa42hl3ShT51EdjE/H134i11rvCS6s3Km/rtNcffvq/Tr1rLvNiG91lcY0tJrxpPUEfxxKTiem/eqlWsfq81pbPHo7dnZU3WiOa1XXyriSZY5dpr+GVvlXf21r66SWLfKj6el8SFU982kamjb7mVz/jIvNWhqfx2VLZlUotYGQau670ehWK59GmZP6WPener9qW9V29ddV6ziJ8oscSmkvV0g101b5u73b+5myK38Y7eeX+bZytRvaoO5P9X5DTWsGgcETEFIJqQYvuQEisEkC1YFK/XWT7be1NX/g2xEAzN2+MR8OVfXPntQtC3aOGQosOqlLOYBubD/LY9z3ydiXjaUicLKvdX+q9+u0WG1bf12nnvW2mfds8uydCe9RzSOfplcOFP1tBlnLToxn57XR49KB2QCqzqT+vh5klctr4UBV60xfGn5VZSZjnZyBtbs1810a11XvT/19VdVM+9MGT+xdvQ/V+1Ubq7arv65ax3HKd/sxv59r5btkX5Ne/3x7S8c1/keA9vnvqq/5/Uvwb3yLa/O71+xfK59moRP6XPener9qU9V29ddV6ziJ8t0OpbVWzkslSdomy0st8X55BYtKjBzN3eVFLeZcV/enep+zfnUhcJoJCKmEVKfZf2NHIDuB6kCl/pq9kRUrHJ0ErxEAdJ58N64qWFSu6GvSiXcVFrXd3rJgXVn3kn/lbZSZOxGo+lceKbefyK2I/NjF6/5U79eptNq2/rpOPWttMz6xrrddf18/MZmbk5YGl50YL6pj9B2YvaWp3n5Lc6NFlRuN265m+jIuM19f06Xm56qJs9Nno3XWNdvDmfZnV53Ip/q8Ve9Xbajarv66ah3HKd/qR+VoY/Lm+Y7nriWwrPq0Sv0jH6tb+8Y1FHNf9ePOxdi7WPsTAY2goNm/8vPMw87bHm6e4F91VePktsOWvjWv5KoAbOi17k/1ftWmq+3qr6vWcRLlWx2aa2gcPla3gtecLD3Yuzq69bRa3/gHgbK6+n5tXK5Sb7654q/mLvgd26yr1p9RXbP9rdqpvgP1OVgWjs71bcsL6n2v3m+5S5pHYDAEhFQ7FFI9fvJttP0MxkYDQWAABKoDlfrrtoeVcuDbPOkp+7zohLl+0rSoXFHRsvV1QPUD3ubBbuu60QHwooPb0cHw9JazNh7VAfPe1fYTuXoXN/G+7k/1fp12q23rr+vUs/o2i07q59e1zUmzzVZHa4W662g60vxcq6Tr7TjMqE6wZvvSVd9o+fQW2na3Ru5VfnbVNdux2fZn153Ep7o/1ftV26m2q7+uWsdxylff8Xr78384YdRCyXdykj8O+KvJ7+jEKvUXVcyVb+zvZvswGxK0zf9s+SIAa/rW/DwayKx/9WW1f9ho61tjWQeW7Itn52/Ux1UbyVHHqm2mlC/nYhHX8X5o5vdd7bb6yoHp+vE+qF5nY19W9mv8u3W6Xa239d/1tcXl27l1zX37/P5seht/UcNo/ZKvVrPV3nzuq0e9AaQjCByDgJBqh0Kq7777Ltp+jjH/NkUAgcwE+njQsvTAt/NfxucPMCtcsyc23eVG5Zetr2qtvbYdSFerG+tGB+bVSX5VqHqdb7udx/jg+szZOFv81b8tHzXn8ihXPRXN5NdlwWTj5KZ9TmZbazsxr5dorWPsSnM+R/66kqXOb9H7HB7lqGNRH61rEmgPpZqldu1zDo9y1HES3Kr90mz/qt9ty+ezbR85qrOqY/73YTWO2XLV0sZV07XF1e3Mc78qy33/7K3Vc2Um9Yz6071+UrCXb2bnab3AtJcD0ykEekBASCWk6oGGuoDAcAj08aClPPis/0tqC+62g9uiWHXQPHMQ2QiJFpWrtmutpziYnRbovr1lya0v1cHy/FURowPg5l/H6uQxDlbKOaz61cJqE4tyeZSrnlXHvDg4LGobz82Yc+ec1BrucrQqUjk2O+bq5KwqNX2dK9/4jozGUF1NcrqvZJllut7JWI46prPn3VICy4LipRX0s0AOj3LUcRJ0Fu4HE+az3Gc1fneN9nPj/eCiOhr/cDAZX9fy+u/L5lWHk9tFq3/8abuNv2hBSDXh7A0CCMwQEFIJqWaE8AEBBI5HoI8HvwsPfMfDXRgAVFejTA5EZ0/YJ8Sa5VoPlquT/vmD1qWhwJL250KHyYHypIflm0U8JnU0+j5bw8l/yuVRrnpOfsRDbGH5lQ+7MuocHuWoY1d4bbqfxX5r9lat9oB+0/06ifZyeJSjjpMY26LfTSm3zW8jpEr6VVkPtGb+MUBIdRIeqROBIRAQUgmphuCxMSDQGwJ9PfjtDSAdSSKQy6Nc9SR1WqFZAouuWpgt2ftPOTzKUUfvQW2xg7Mh//ZvWT4pFDk8ylHHSYxvYUiV8JcXl4ZUC+oY/QNNy5WnXVdSLairk834H7KmwZaQqpOVFQiccgJCKiHVKf8KGD4CeQn09eA37yjVdtIEcnmUq56THu+u1z/0K1lyeJSjjl33RP+PTyCHRznqOP5I5mtYHFJ1335fhT7LQ6ruOgomVT0zPesMqTrqKsL5qqKlt+qPQqrZqwBnWu/1h7561GtoOodAIgEhlZAqURXFEEAghYCDlhRKyiwjkMujXPUs66/1EUO+kiWHRznq4BkCOTzKUcdJzMToaqbaLfHVLe5V6FM0uuC2+pSQqux3s44zHbfwT9rrXj/X55nb+Zr7xZZ6an3ZtbCqrx6dhJvqRGDTBIRUQqpNO6c9BAZNwEHLoKd3Y4PL5VGuejY2cA31kkAOj3LU0Us4OrVRAjk8ylHHRgetsV4S4FEvp0WnBkJASCWkGojKhoFAPwg4aOnHPOx6L3J5lKueXeep/8cjkMOjHHUcbxS2HgKBHB7lqGMILI3heAR4dDx+tkZgEQEhlZBqkR/WIYDAigQctKwITPFWArk8ylVPayctPDUEcniUo45TA9xAOwnk8ChHHZ0dtOLUEODRqZlqA90CgTP/5Sc/Dz/rMXhhScD1+Mm3se7P0eOnUfwcHj2JR4eP428PH8V3333X+rMFbzSJAAIdBBy0dICxeCUCuTzKVc9KnVd4cARyeJSjjsGBNaCVCeTwKEcdK3fcBoMjwKPBTakB9YiAK6mWBE3LgqhF69cNqIrthFQ9+pboCgIrEHDQsgIsRTsJ5PIoVz2dHbXiVBDI4VGOOk4FbINcSCCHRznqWNhJK08FAR6dimk2yC0REFIJqbaknmYRGCYBBy3DnNdNjyqXR7nq2fT4tdcvAjk8ylFHv6jozTYI5PAoRx3bGLs2+0WAR/2aD70ZFgEhlZBqWEYbDQJbJuCgZcsTMJDmc3mUq56BYDWMNQnk8ChHHWt232YDIpDDoxx1DAipoaxJgEdrgrMZAgkEhFRCqgRNFEEAgVQCDlpSSSm3iEAuj3LVs6iv1g2fQA6PctQxfNJGuIxADo9y1LGsn9YPnwCPhj/HRrg9AkIqIdX27NMyAgMk4KBlgJO6hSHl8ihXPVtAoMkeEcjhUY46eoREV7ZEIIdHOerY0vA12yMCPOrRZOjK4AgIqYRUg5PagBDYJgEHLdukP5y2c3mUq57hkDWSdQjk8ChHHev03TbDIpDDoxx1DIuq0axDgEfrULMNAmkEhFRCqjRTlEIAgSQCDlqSMCm0hEAuj3LVs6S7Vg+cQA6PctQxcMyGl0Agh0c56kjoqiIDJ8CjgU+w4W2VgJBKSLVVATWOwNAIOGgZ2oxuZzy5PMpVz3YoaLUvBHJ4lKOOvvDQj+0RyOFRjjq2R0DLfSHAo77MhH4MkYCQSkg1RK+NCYGtEXDQsjX0g2o4l0e56hkUXINZmUAOj3LUsXLHbTA4Ajk8ylHH4MAa0MoEeLQyMhsgkExASCWkSpZFQQQQWE7AQctyRkosJ5DLo1z1LO+xEkMmkMOjHHUMmbGxpRHI4VGOOtJ6q9SQCfBoyLNrbNsmIKQSUm3bQe0jMCgCDloGNZ1bG0wuj3LVszUQGu4FgRwe5aijFzB0YqsEcniUo46tQtB4LwjwqBfToBMDJSCkElINVG3DQmA7BBy0bIf70FrN5VGueobG13hWI5DDoxx1rNZrpYdIIIdHOeoYIltjWo0Aj1bjpTQCqxAQUgmpVvFFWQQQWELAQcsSQFYnEcjlUa56kjqt0GAJ5PAoRx2DBWxgyQRyeJSjjuQOKzhYAjwa7NQaWA8ICKmEVD3QUBcQGA4BBy3DmcttjiSXR7nq2SYLbW+fQA6PctSxfRJ6sG0COTzKUce2OWh/+wR4tP050IPhEhBSCamGa7eRIbAFAg5atgB9gE3m8ihXPQNEbEgrEMjhUY46VuiyogMlkMOjHHUMFK9hrUCARyvAUhSBFQkIqYRUKyqjOAIILCLgoGURHetSCeTyKFc9qf1WbpgEcniUo45h0jWqVQjk8ChHHav0WdlhEuDRMOfVqPpBQEglpOqHiXqBwEAIOGgZyERueRi5PMpVz5ZxaH7LBHJ4lKOOLWPQfA8I5PAoRx09QKELWybAoy1PgOYHTUBIJaQatOAGh8CmCTho2TTxYbaXy6Nc9QyTslGlEsjhUY46Uvur3HAJ5PAoRx3DJWxkqQR4lEpKOQRWJyCkElKtbo0tEECgk4CDlk40VqxAIJdHuepZoeuKDpBADo9y1DFAtIa0IoEcHuWoY8VuKz5AAjwa4KQaUm8ItIRUF+KNGwfxrNnFH57G7Q/fjhdeWrb+fLxwgsHPLtX9+Mm3se7P0eOnUfwcHj2JR4eP428PH8V3333X+tOcKp8RQGB7BBy0bI/9kFrO5VGueobE1lhWJ5DDoxx1rN5zWwyNQA6PctQxNK7GszoBHq3OzBYIpBJoCamuxX48jz/97t348evTn9c+P4h4eCtee2nZ+mZIdT32E3tzcPODWsBVbPcgLi8LvC5dj8uXmm324/O6AVWxnZAqURrFEOgZgbaDFsvOBAbHZ7CO6rgfnzuG7QxX9RHHdo64HJ9LDhdXrUN5BNq+u6gggEAeAi0hVREOHcanzeDnwwfjkGrZ+oSA6MMHMRtItW1TD6k+iE8fdg94eV1t9Z/8MiFV95xZg8BQCbQdtFh2/JMQDM+s9ZXBjXsn5cCqQp5UP9TLcS5yoC/7gVVdVB4BBNoJbCCkKsKmxP/uXo8XXmopf/dWfPqwJThbdpXVltcLqRLnXTEEBkSgLwdK+jG8g/Z1viY8GJ4HfZnTVX3sS7/1Y3jfCS4Ob0539Xu6qovKI4BAO4ENhFSzVyy9dvMw4Sqq8/HCpVtxMLndr7iSSkjlmVTtEluKQJ8I7OqBlX73/yB/Hc/Na//ndVfnaFUfd3Wc+t3/7xAX+z9Hp+V7tKqLyiOAQDuBNUKqq3H7++exf+2DmWdWFQ9bHz2zajaUuny3veHOpeXVVOejCLNiJqTq2KJ8TtZsm315uLorqTrmzGIEBkzgtByIGefmTwrW+dqYp83P02lhvqqPp4WLcW7+O8fFzTPneTvzVV1UHgEE2gmsEVKdj1d+tx8HT57GUf3n8Jv45BcXag8+bwZH12O/M1CqP3+q2K7+DKriCqrxlVQ3H0SMQ6wyiCqutuqss9n+5j8LqdqlsxQBBBBAAAEEEEAAgW0QELC0Byy4HJ/LNnzWJgJDJLBWSLXqlUqjq6KW4av9Jb8yfDoc3e5Xvn8Q++XtfrNBV/Ktg1t6NlXukKqrvmVkrUcAAQQQQAABBBBAAAEEEEAAAQT6TmCNkOpCFLf2PWuO7IencfvDtxtXUo2uiCr/+t7Cq55mr6QqbhHc/7C+rKhnFGKN1hVXRdXXb/4qqZSgritUSll+9PhpFD+HR0/i0eHj+NvDR03iPiOAAAIIIIAAAggggAACCCCAAAKDIbBGSHUt9uN5/Ol37848k+q1z9ufSTUJc4qQaiG26kqqD+LTu7fitZkQqhZIlfU8iP27kfYA9i1dRVWMOyWM6iojpFooi5UIIIAAAggggAACCCCAAAIIIDAwAmuEVEVg1PKX9j580Prg9JmQqvP5UbUQahIq1ZYVddeeRVU+jL2zrv5cVdUVQKUsF1IN7JtmOAgggAACCCCAAAIIIIAAAgggsJDAZkOqhV2prqSqQqYqpKqFYuOrscrbB4vgKorbAqvy/XtNCaO6ygipFspiJQIIIIAAAggggAACCCCAAAIIDIzAZkOqzqufqkCqHjSNln1687C8ra98+Prc9rVnXk2uwKrXsd33XQFUynIh1cC+aYaDAAIIIIAAAggggAACCCCAAAILCbSEVFfj9vfPY//aBzPPnCoelh5lSLRs/XaDocnthT0IrVLCqK4yQqqF3lqJAAIIIIAAAggggAACCCCAAAIDI9ASUp2PV363HwdPnsZR/efwm/jkFxfKv963bH2fgqJt9qUrgEpZLqQa2DfNcBBAAAEEEEAAAQQQQAABBBBAYCGB1pBqm8HOkNpOCaO6ygipFnprJQIIIIAAAggggAACCCCAAAIIDIyAkOoEbwvsCqBSlgupBvZNMxwEEEAAAQQQQAABBBBAAAEEEFhIQEglpFooiJUIIIAAAggggAACCCCAAAIIIIDAJggIqYRUm/BMGwgggAACCCCAAAIIIIAAAggggMBCAkIqIdVCQaxEAAEEEEAAAQQQQAABBBBAAAEENkFASCWk2oRn2kAAAQQQQAABBBBAAAEEEEAAAQQWEhBSCakWCmLAQj0TAAAX20lEQVQlAggggAACCCCAAAIIIIAAAgggsAkCQioh1SY80wYCCCCAAAIIIIAAAggggAACCCCwkICQSki1UBArEUAAAQQQQAABBBBAAAEEEEAAgU0QEFIJqTbhmTYQQAABBBBAAAEEEEAAAQQQQACBhQSEVEKqhYJYiQACCCCAAAIIIIAAAggggAACCGyCgJBKSLUJz7SBAAIIIIAAAggggAACCCCAAAIILCQgpBJSLRTESgQQQAABBBBAAAEEEEAAAQQQQGATBIRUQqpNeKYNBBBAAAEEEEAAAQQQQAABBBBAYCEBIZWQaqEgViKAAAIIIIAAAggggAACCCCAAAKbICCkElJtwjNtIIAAAggggAACCCCAAAIIIIAAAgsJCKmEVAsFsRIBBBBAAAEEEEAAAQQQQAABBBDYBAEhlZBqE55pAwEEEEAAAQQQQAABBBBAAAEEEFhIQEglpFooiJUIIIAAAggggAACCCCAAAIIIIDAJggIqYRUm/BMGwgggAACCCCAAAIIIIAAAggggMBCAkIqIdVCQaxEAAEEEEAAAQQQQAABBBBAAAEENkFASCWk2oRn2kAAAQQQQAABBBBAAAEEEEAAAQQWEhBSCakWCmIlAggggAACCCCAAAIIIIAAAgggsAkCQioh1SY80wYCCCCAAAIIIIAAAggggAACCCCwkEB3SHXuUrz1h6/i9p17yT83/vDbOH/ufLxwgsHPLtX9+Mm3se7P0eOnUfwcHj2JR4eP428PHy2cSCsRQAABBBBAAAEEEEAAAQQQQACBXSbQEVK9Ge/ffR7xw9P4+n5iSHX/II5+iHh291rsCanKoG7dgKrYTki1y18rfUcAAQQQQAABBBBAAAEEEEAAgVUJdIRU12M/IvavXljpqqgXrz6IiAdxOSWk+jCl7Afx6cO2+orlh/HppX5ftSWkWlVH5RFAAAEEEEAAAQQQQAABBBBA4LQS6AipPogrt/fjyqohUFLwNA2WXrt5GHH3+oIgrBZSFXVPyjZCqpl10/q3fWugkOq0fq2MGwEEEEAAAQQQQAABBBBAAAEEViXQElK9HW/9/rO48vH459fvxYvllVFvx/s3O279u3ktXinKtIZURaC0Yrce3orXyjZrIdVL56MItQ5ufhAvvFQPqYqrvtquttp+WCWkWnHeFUcAAQQQQAABBBBAAAEEEEAAgVNLoCWk+iA++svTOHoy/rn/Wbx6rJCqFhYtuOKpCKD2P6zKtgRbZXBVhVPV6/m4fLe/t/3lDqm66ju19ho4AggggAACCCCAAAIIIIAAAggMhkBLSFUERe/G5c+vx4/LcKoKjhJeW6+kqm93PfYnV0nVlxehU9vVUF1XSU1Dqm3f0reo/a5QKWW5B6cP5jtmIAgggAACCCCAAAIIIIAAAgggkECgI6RqD4de/K+X4sevvzv/85PXR8+VWhpSFVc+Re2KqXFQ1XGFVfnMqjiMg4fFNqOHuXeNaXQbYD342v77lDCqq4yQqmumLUcAAQQQQAABBBBAAAEEEEAAgSESWCGkKq5e6kDww714v/OZVI2w6NKtOJh5hlQRPrXdsldcdfUg9ou/4nez+EuAbWVGdU+fVdVoa9UrwTKX7wqgUpYLqTpcsxgBBBBAAAEEEEAAAQQQQAABBAZJYIWQKiEASriSqrg9rrxCqvxLfaPga/osqmkbo2dU1W8DXBCSRYwfqD7dftFteJtalxJGdZURUg3y+2ZQCCCAAAIIIIAAAggggAACCCDQQaAlpLoQez99N177+Qej2/p++ub4r/slBECJIdUkqOoMlz6IT+8Wf+GvHlJ1t+9Kqo7ZtRgBBBBAAAEEEEAAAQQQQAABBBDYEQItIdXl2dv6vt2Pd8rb4N6NK3drf/Wv+ut/xes3X8Rrqbf7TcpF7N8tbuNbdBWUkOrw6Ek8Onwcf3v4aEeU0k0EEEAAAQQQQAABBBBAAAEEEEBgdQItIVVxxdK7cfnLW/H+T+pXL12IV3/9WVz5uOXn97+NVybhU9tf6RvVUzw0vfyvvNVvWnfX8hdqV1KVtwguGJ8Hpy+AYxUCCCCAAAIIIIAAAggggAACCCDQcwIdIdXoL+m1PStq4fOcWm/3mz5Laml95fYR8bC41a8IsVxJ5Uqqnn+DdA8BBBBAAAEEEEAAAQQQQAABBLIQ6AiprsV+RHz9h7djYShVBknTK6Je+cNBRDwY/aW/xrpV6hlK2a6Hoqcs9+D0LH6rBAEEEEAAAQQQQAABBBBAAAEEdoRAR0h1Id64eVgO4Vn92VML3z8vyx/cvJz+oPWBB1kpYVRXGSHVjnyDdBMBBBBAAAEEEEAAAQQQQAABBLIQ6AipiqujLsT5/3Gt/RlUbc+l+vizeP9/XBJQ1YK3rgAqZbmQKovfKkEAAQQQQAABBBBAAAEEEEAAgR0hsCCkmt7GN5Tb7zY9jpQwqquMkGpHvkG6iQACCCCAAAIIIIAAAggggAACWQgIqWpXPuUOsboCqJTlQqosfqsEAQQQQAABBBBAAAEEEEAAAQR2hICQSki1I6rqJgIIIIAAAggggAACCCCAAAIIDJmAkEpINWS/jQ0BBBBAAAEEEEAAAQQQQAABBHaEgJBKSLUjquomAggggAACCCCAAAIIIIAAAggMmYCQSkg1ZL+NDQEEEEAAAQQQQAABBBBAAAEEdoSAkEpItSOq6iYCCCCAAAIIIIAAAggggAACCAyZgJBKSDVkv40NAQQQQAABBBBAAAEEEEAAAQR2hICQSki1I6rqJgIIIIAAAggggAACCCCAAAIIDJmAkEpINWS/jQ0BBBBAAAEEEEAAAQQQQAABBHaEgJBKSLUjquomAggggAACCCCAAAIIIIAAAggMmYCQSkg1ZL+NDQEEEEAAAQQQQAABBBBAAAEEdoSAkEpItSOq6iYCCCCAAAIIIIAAAggggAACCAyZgJBKSDVkv40NAQQQQAABBBBAAAEEEEAAAQR2hICQSki1I6rqJgIIIIAAAggggAACCCCAAAIIDJmAkEpINWS/jQ0BBBBAAAEEEEAAAQQQQAABBHaEgJBKSLUjquomAggggAACCCCAAAIIIIAAAggMmYCQSkg1ZL+NDQEEEEAAAQQQQAABBBBAAAEEdoSAkEpItSOq6iYCCCCAAAIIIIAAAggggAACCAyZgJBKSDVkv40NAQQQQAABBBBAAAEEEEAAAQR2hICQSki1I6rqJgIIIIAAAggggAACCCCAAAIIDJmAkEpINWS/jQ0BBBBAAAEEEEAAAQQQQAABBHaEgJBKSLUjquomAggggAACCCCAAAIIIIAAAggMmYCQSkg1ZL+NDQEEEEAAAQQQQAABBBBAAAEEdoRAZ0j18q9uxO2/Po2jJyv8HDyIT359KV48weDnhR2q+/GTb2Pdn6PHT6P4OTx6Eo8OH8ffHj7aEaV0EwEEEEAAAQQQQAABBBBAAAEEEFidQHtI9bMv4ut4Hge3v4grH3+W/PPRl9/Es3gaN351PnYpTDqpvq4bUBXbtYVUXfWtPu22QAABBBBAAAEEEEAAAQQQQAABBPpFoD2k+vBBxMNb8drKVy1diMv3Iw5uftAaUl2+2zb4B3F50s712I+I/Q+HEXJ1hUopy9tCqjZ6liGAAAIIIIAAAggggAACCCCAAAJDIJA5pDofRRC1MKS6e30mwCqDq0kgJqSqAiwh1RC+XsaAAAIIIIAAAggggAACCCCAAAKpBBJCqrfjnZvfxNEPRZXP4+DO9Xj1XPeVTquGVC8UV21FdTWVkEpIlaqucggggAACCCCAAAIIIIAAAgggMCQCS0Oq124cRjzcj1/+7M3Y+/ur8ek3zyMefhVv/ageVF2Il390obxCatWQqrySanJ1lZBKSDWkr5exIIAAAggggAACCCCAAAIIIIBAKoGlIdVbf7gXn7w/CqDKB4yfuxSX7z6POHwQV37xZuz95HJcuft08gyrpSFVs2eTW/2K0EtIJaRqCuIzAggggAACCCCAAAIIIIAAAgicBgJLQ6r2v3xXuwXwh+dxcP+LeOcnoyurloZUk6umRuVfu3nodr8n30YVTlWvnkl1Gr5+xogAAggggAACCCCAAAIIIIAAAhWBNUOq+q1+s+9XDalmr55yJZWQqlLTKwIIIIAAAggggAACCCCAAAIInCYCQqqXZkO29ivH1itTBU7rvLqS6jR9DY0VAQQQQAABBBBAAAEEEEAAAQS6Q6rDr+KNlQOct+OjbyIObnxQPkS9GfjMPiR9FPy43W/+Vr8i1BJS+XIigAACCCCAAAIIIIAAAggggMBpItAeUp27Gre/j4jvn8bRkxV+vn0e8cNBfPSz9iuPypBqju5hfHqpKu92v+qqKyHVnCgWIIAAAggggAACCCCAAAIIIIDAgAm0h1TFFVQ/+iB++flXcfvOvcbPQRzF8zj4c3P5vfjTzc/irZ/W/hLgyldiVWHVMF6rwGmdVyHVgL91hoYAAggggAACCCCAAAIIIIAAAnMEukOqKmA691788uPP4srkZz++juex/3l92bV4a/zX/Zq3+J3mz+uEU9U2Qqo5Vy1AAAEEEEAAAQQQQAABBBBAAIEBE1geUv3d1fh07mqq5lVU+3FlcsveMK6CyhGuVYHTOq9CqgF/6wwNAQQQQAABBBBAAAEEEEAAAQTmCCwPqaorqry2Pgx+UZi1TjhVbSOkmnPVAgQQQAABBBBAAAEEEEAAAQQQGDABIdUJhm9V4LTOq5BqwN86Q0MAAQQQQAABBBBAAAEEEEAAgTkCQioh1ZwUFiCAAAIIIIAAAggggAACCCCAAAKbJiCkElJt2jntIYAAAggggAACCCCAAAIIIIAAAnMEhFRCqjkpLEAAAQQQQAABBBBAAAEEEEAAAQQ2TUBIJaTatHPaQwABBBBAAAEEEEAAAQQQQAABBOYICKmEVHNSWIAAAggggAACCCCAAAIIIIAAAghsmoCQSki1aee0hwACCCCAAAIIIIAAAggggAACCMwREFIJqeaksAABBBBAAAEEEEAAAQQQQAABBBDYNAEhlZBq085pDwEEEEAAAQQQQAABBBBAAAEEEJgjIKQSUs1JYQECCCCAAAIIIIAAAggggAACCCCwaQJCKiHVpp3THgIIIIAAAggggAACCCCAAAIIIDBHQEglpJqTwgIEEEAAAQQQQAABBBBAAAEEEEBg0wSEVEKqTTunPQQQQAABBBBAAAEEEEAAAQQQQGCOgJBKSDUnhQUIIIAAAggggAACCCCAAAIIIIDApgkIqYRUm3ZOewgggAACCCCAAAIIIIAAAggggMAcASGVkGpOCgsQQAABBBBAAAEEEEAAAQQQQACBTRMQUgmpNu2c9hBAAAEEEEAAAQQQQAABBBBAAIE5AkIqIdWcFBYggAACCCCAAAIIIIAAAggggAACmyYgpNqRkOrhvz7atBvaQwABBBBAAAEEEEAAAQQQQAABBDZGQEi1MyHV4cak0BACCCCAAAIIIIAAAggggAACCCCwaQJCqh0Lqf7t3/4tmj+blkZ7CCCAAAIIIIAAAggggAACCCCAQG4CQqodCan+9vDRXDhVhVW5pVAfAggggAACCCCAAAIIIIAAAgggsGkCQqodCKn+9dFRFCHV0eOn5c/h0ZOo/2xaGu0hgAACCCCAAAIIIIAAAggggAACuQkIqXYgpHp0+Dge/qtnUuWWX30IIIAAAggggAACCCCAAAIIINAfAgkh1YU4/+svYv/gaTz7/nk8e3IY+59fjfPnzscLJxjwDKHux0++jeP8VFdLFSFVcSWV/xBAAAEEEEAAAQQQQAABBBBAAIGhElgaUr32h4N49sPTuP3x5fjx6+/Gj9+9Hn86iIiDL+Kt97+I21/eiLd+eiEpsLp8N+Lg5gdJZauQ6rWbhytvU2277dfjBFTFtkKqoX7tjAsBBBBAAAEEEEAAAQQQQAABBJoEFodUf/dZ3I/DuPGLRgh17nLceBhx/9rl+OibosrD+LRZZu4qq+ux//BWvFYt//BBsy+jz3ev///t3U9LHGccwPHX5mvw5gvIxZyWHnIogUIgSE7pwRJK6aEhIAFDK5GCAYskNCBKEVbKFrGErUhhK13JhlXhV2Z3ZjM7zmOkfyay/QgS9xl3Rz/75PLleR5LEetxbJ10YyV/Tha56j/6sbV881Z2/ZNIVT5/yna/+nfdKAECBAgQIECAAAECBAgQIDA7AldHqm+7EeWwVASmhVZkK5ziYCPmFpbi4U5/tLLqbul6dRXTve1uHpI2oxPdWMki1VSQasVcdWytO7WKKotUnbVqjMpC1mxHquLg9NmZdn4TAgQIECBAgAABAgQIECBAgMC0wNWR6ulhDPv78aAmPj3YGeSRqhVzt/PwVPN9o1i1vBe9PEhNQlM1SGXPnRorraLKxk/2Yut/GqmcSTU9aT0iQIAAAQIECBAgQIAAAQIEZk/g6kh1eyPaZ+fRWfu8tAWvFXOfbUbn7Dzaq+NtgIvr3RgmVlxlkWq06qqwK1ZPZeGp7qN0fXx+1fuVUpPANRXD3l+vrt762I9t96t7g40RIECAAAECBAgQIECAAAECBC4LXB2pFlqxuHoYpxfncdTeiWffv4xnrzpx9C7i9OeNWMwC1A/HMYzsfKrl6ZA1FZKyLXqPY+ugciZVEaSK7y2tpCqHreKwdZHq8htohAABAgQIECBAgAABAgQIECAwCwJXRqr5+xuxe3IeEecx7B1H+5fDaP/Wj+FZRJz1o73+dbSe7ET790FEDKK9WllxVcSnhVasHPRjaztfPZXFqVKQmqx4ujQ2fdh6FqnqP2b7TKrxwel/1v/qRgkQIECAAAECBAgQIECAAAECMyCQjFTzj/aiFxG99mbc+6R6WPlS3Hm6H72LiN72SsxnK66edKJ3kfgrf9mZVBlWeeXUh7b7LeTnXOXPLVZTTYJWKYDd1LF/c7vfHyci1Qz8f/MrECBAgAABAgQIECBAgAABAgmB+kj16cbozKnO+vIoQKUi0Pz98dlUxZlVd1/1I968jFvXCUiXVk1VDk4vIlb1rKvS87ItgTc5XolUiVlnmAABAgQIECBAgAABAgQIECBQEaiNVA9/GsTwYPNasenWWjeGb/fjYRamlnbi6OwwvkpEqsl2vSw8lWLTJILVjWVnWZ1EdNZaMTdaVdWNlcnrj6/d1FAlUlVmm4cECBAgQIAAAQIECBAgQIAAgYRATaTKws957H5T3eKXevxd7L4bxOtHS7G49Dp+jXJEyp+Tr4oahaYiMNUFqamxcYCKyM+buhSoip+nFLGK174h/4pUiVlnmAABAgQIECBAgAABAgQIECBQEaiJVPlZULeLCPThf8d/de9xvDgexGl/P764MhIV8anyk5QfnuzFjwf56qnRa+U/U+p1s4BV3RaY+t4Gx0Wq8pvqawIECBAgQIAAAQIECBAgQIBAWiARqY7j+dKXceean8/flIPSh6PWZHtfg8HoY9xTpEpPPFcIECBAgAABAgQIECBAgAABAmWBmkiVr4h6O4jTa3/24sWyOFUNYSJVear5mgABAgQIECBAgAABAgQIECCQFqiJVGJTNTb93cciVXriuUKAAAECBAgQIECAAAECBAgQKAuIVP/hlkORqjzVfE2AAAECBAgQIECAAAECBAgQSAuIVCJVena4QoAAAQIECBAgQIAAAQIECBBoSECkEqkammpuQ4AAAQIECBAgQIAAAQIECBBIC4hUIlV6drhCgAABAgQIECBAgAABAgQIEGhIQKQSqRqaam5DgAABAgQIECBAgAABAgQIEEgLiFQiVXp2uEKAAAECBAgQIECAAAECBAgQaEhApBKpGppqbkOAAAECBAgQIECAAAECBAgQSAuIVCJVena4QoAAAQIECBAgQIAAAQIECBBoSECkEqkammpuQ4AAAQIECBAgQIAAAQIECBBIC4hUIlV6drhCgAABAgQIECBAgAABAgQIEGhIQKQSqRqaam5DgAABAgQIECBAgAABAgQIEEgLiFQiVXp2uEKAAAECBAgQIECAAAECBAgQaEhApBKpGppqbkOAAAECBAgQIECAAAECBAgQSAuIVCJVena4QoAAAQIECBAgQIAAAQIECBBoSECkEqkammpuQ4AAAQIECBAgQIAAAQIECBBIC/wFHn+Ekd0M0scAAAAASUVORK5CYII=;" vertex="1" parent="1">
          <mxGeometry x="40" y="80" width="1193" height="462" as="geometry" />
        </mxCell>
        <mxCell id="FPIvqE7i1kk4Mldst6vu-2" value="" style="html=1;verticalLabelPosition=bottom;labelBackgroundColor=#ffffff;verticalAlign=top;shadow=0;dashed=0;strokeWidth=2;shape=mxgraph.ios7.misc.down;strokeColor=#FFFFFF;" vertex="1" parent="1">
          <mxGeometry x="100" y="110" width="12" height="6" as="geometry" />
        </mxCell>
      </root>
    </mxGraphModel>
  </diagram>
</mxfile>
